<svg width="20" height="20" viewBox="0 0 20 20" fill="none" xmlns="http://www.w3.org/2000/svg">
<path d="M8.39192 17.0858C8.39191 16.9636 8.36501 16.8429 8.31314 16.7322C8.26127 16.6216 8.18569 16.5237 8.09177 16.4455C7.99785 16.3673 7.88787 16.3107 7.76965 16.2797C7.65142 16.2488 7.52783 16.2442 7.40763 16.2663C6.31673 16.4665 4.93937 16.4966 4.57316 15.468C4.25383 14.6713 3.72489 13.9759 3.0424 13.4555C2.99371 13.429 2.9473 13.3985 2.90365 13.3643C2.84392 13.2068 2.73783 13.071 2.59937 12.975C2.46091 12.879 2.29659 12.8272 2.12809 12.8264H2.12402C1.90369 12.8263 1.6923 12.9135 1.53612 13.069C1.37994 13.2244 1.29169 13.4353 1.29069 13.6557C1.28743 14.3352 1.96652 14.7706 2.24202 14.9179C2.56689 15.2443 2.82798 15.6285 3.01188 16.0507C3.31543 16.9036 4.19759 18.1975 6.7334 18.0307C6.73423 18.06 6.73502 18.0877 6.73543 18.1129L6.73909 18.3359C6.73909 18.5569 6.82689 18.7688 6.98317 18.9251C7.13945 19.0814 7.35141 19.1692 7.57242 19.1692C7.79344 19.1692 8.0054 19.0814 8.16168 18.9251C8.31796 18.7688 8.40576 18.5569 8.40576 18.3359L8.40169 18.0706C8.39763 17.9126 8.39192 17.684 8.39192 17.0858ZM17.2811 4.48082C17.3075 4.37666 17.3336 4.2611 17.3564 4.13089C17.4911 3.20221 17.3737 2.25438 17.0162 1.38672C16.9711 1.27361 16.9018 1.17173 16.8132 1.08823C16.7245 1.00472 16.6187 0.941615 16.5031 0.903331C16.2064 0.803231 15.1111 0.606289 13.0164 1.945C11.2751 1.53524 9.46258 1.53524 7.72137 1.945C5.63517 0.625898 4.54549 0.804898 4.25171 0.899298C4.13326 0.936031 4.02454 0.998803 3.9335 1.08301C3.84246 1.16722 3.77142 1.27073 3.72558 1.38596C3.36083 2.27028 3.24462 3.23744 3.38948 4.183C3.40983 4.28961 3.4318 4.38808 3.45459 4.47841C2.76423 5.39794 2.39652 6.51954 2.40845 7.66932C2.4062 7.92585 2.41802 8.18231 2.44385 8.43755C2.72218 12.273 5.22218 13.4245 6.96411 13.82C6.9279 13.9242 6.89494 14.0357 6.86564 14.1537C6.81342 14.3681 6.84837 14.5945 6.96281 14.7832C7.07725 14.9719 7.26184 15.1075 7.47612 15.1603C7.69039 15.213 7.91685 15.1787 8.10585 15.0648C8.29484 14.9508 8.43094 14.7666 8.48429 14.5525C8.53732 14.2748 8.67322 14.0197 8.87411 13.8209C8.99557 13.7145 9.08351 13.5752 9.12724 13.4198C9.17096 13.2644 9.16858 13.0996 9.12038 12.9455C9.07218 12.7915 8.98025 12.6547 8.85576 12.5519C8.73128 12.4491 8.5796 12.3848 8.41919 12.3666C5.54078 12.0378 4.29117 10.8651 4.10319 8.28456C4.08237 8.08017 4.073 7.87477 4.07512 7.66933C4.06175 6.84988 4.33247 6.05106 4.84131 5.40859C4.89244 5.34161 4.94689 5.27724 5.00447 5.21571C5.1065 5.10155 5.1751 4.96148 5.20274 4.81089C5.23037 4.66029 5.21598 4.50499 5.16114 4.36204C5.10492 4.21165 5.06163 4.05673 5.03175 3.89898C4.96386 3.45041 4.98613 2.99281 5.09725 2.55295C5.82153 2.75751 6.50318 3.09048 7.10975 3.53601C7.21006 3.60283 7.32356 3.64729 7.44256 3.66638C7.56156 3.68548 7.68327 3.67877 7.79945 3.6467C9.48371 3.18961 11.2594 3.1899 12.9435 3.64753C13.0603 3.67956 13.1827 3.6859 13.3021 3.66609C13.4216 3.64628 13.5354 3.6008 13.6356 3.53279C14.2394 3.0854 14.9182 2.74945 15.64 2.54076C15.7507 2.97006 15.7754 3.41698 15.7129 3.85586C15.6827 4.02881 15.6355 4.19836 15.5721 4.36206C15.5172 4.50501 15.5028 4.66031 15.5305 4.8109C15.5581 4.9615 15.6267 5.10157 15.7287 5.21573C15.793 5.28816 15.8573 5.36628 15.9151 5.43952C16.4203 6.07112 16.6865 6.86075 16.6667 7.66932C16.6682 7.88566 16.6577 8.10192 16.6353 8.31711C16.4518 10.8635 15.1973 12.037 12.3055 12.3666C12.145 12.3849 11.9934 12.4494 11.8689 12.5522C11.7444 12.6551 11.6525 12.792 11.6044 12.9461C11.5562 13.1002 11.5539 13.2651 11.5977 13.4205C11.6415 13.5759 11.7295 13.7153 11.851 13.8217C12.0582 14.0259 12.1944 14.2911 12.2396 14.5785C12.2959 14.8016 12.3218 15.0313 12.3165 15.2613V17.2063C12.3083 17.7458 12.3083 18.1503 12.3083 18.3358C12.3083 18.5568 12.3961 18.7688 12.5524 18.9251C12.7087 19.0814 12.9207 19.1692 13.1417 19.1692C13.3627 19.1692 13.5746 19.0814 13.7309 18.9251C13.8872 18.7688 13.975 18.5568 13.975 18.3358C13.975 18.1552 13.975 17.7588 13.9831 17.2193V15.2613C13.9899 14.8928 13.9465 14.5251 13.8542 14.1683C13.8278 14.0512 13.7954 13.9355 13.7573 13.8217C15.025 13.6111 16.1769 12.9575 17.0078 11.9772C17.8388 10.9969 18.2949 9.75356 18.2951 8.46848C18.3225 8.203 18.3353 7.93621 18.3333 7.66932C18.3518 6.5183 17.981 5.39476 17.2811 4.48084L17.2811 4.48082Z" fill="#ffffffb3"/>
</svg>
