<svg width="33" height="20" viewBox="0 0 33 20" fill="none" xmlns="http://www.w3.org/2000/svg">
<path d="M2.66841 3.20115L0 0.0454589C0 0.0454589 10.7201 -0.0937599 12.762 0.11507C14.8039 0.323899 16.3641 1.00556 17.7275 2.52824C19.091 4.05093 19.2038 7.53309 18.238 9.18768C17.2723 10.8423 16.4736 11.5865 14.1542 12.3898L19.5142 19.9309H15.4304L8.14446 9.86058H12.3443C16.79 8.8355 16.1265 3.31717 11.9731 3.20115H2.66841Z" fill="#FAF8F5"/>
<path d="M18.911 9.44288C19.6343 7.26435 19.6594 6.00066 19.143 3.82761L22.7164 9.32686L29.0278 0.0222168H32.5083V20.0005H29.0278V5.7071L22.7164 15.1046L18.911 9.44288Z" fill="url(#paint0_linear_2204_30)"/>
<defs>
<linearGradient id="paint0_linear_2204_30" x1="31.0697" y1="0.951313" x2="23.4357" y2="19.5838" gradientUnits="userSpaceOnUse">
<stop stop-color="#F7931E"/>
<stop offset="1" stop-color="#FCBD38"/>
</linearGradient>
</defs>
</svg>
