<svg width="240" height="275" viewBox="0 0 240 275" fill="none" xmlns="http://www.w3.org/2000/svg">
<path d="M8.82662 141.21C9.50415 140.436 11.2464 139.661 14.0533 138.887C16.9569 138.113 20.4898 137.532 24.6517 137.145C28.8137 136.661 33.4596 136.564 38.5894 136.855C43.7193 137.048 48.8975 137.774 54.1241 139.032C59.4476 140.291 64.5774 142.178 69.5137 144.695C74.4499 147.211 78.8055 150.647 82.5803 155.003C86.4518 159.261 89.5491 164.536 91.8721 170.828C94.195 177.022 95.3081 184.427 95.2113 193.041C95.2113 199.332 94.0982 204.752 91.8721 209.302C89.7427 213.851 86.9842 217.722 83.5966 220.916C80.2089 224.11 76.3857 226.724 72.127 228.756C67.8683 230.789 63.6579 232.386 59.496 233.547C55.4308 234.612 51.5592 235.338 47.8812 235.725C44.2032 236.112 41.2511 236.306 39.025 236.306C38.3474 236.306 37.6699 236.306 36.9924 236.306C36.4116 236.209 35.7341 236.112 34.9598 236.015L34.0887 237.903L31.4754 237.758L29.8784 241.678L28.2813 241.242L27.7006 242.113C27.3134 242.694 27.0715 242.984 26.9747 242.984C26.8779 242.5 26.7811 241.436 26.6843 239.79C26.6843 238.242 26.6359 236.306 26.5391 233.983C24.1194 233.112 21.6996 231.854 19.2799 230.208C16.8602 228.466 14.634 226.288 12.6014 223.675C10.6656 220.965 9.0686 217.674 7.81033 213.802C6.64886 209.834 6.06812 205.14 6.06812 199.719C6.45528 198.848 6.84244 198.219 7.2296 197.832C7.51996 197.542 7.81033 197.493 8.1007 197.687C8.39107 197.784 8.53626 198.51 8.53626 199.865C8.53626 200.832 8.97181 201.897 9.84291 203.059C10.714 204.22 11.8755 205.382 13.3273 206.543C14.876 207.608 16.715 208.672 18.8443 209.737C20.9737 210.705 23.3451 211.528 25.9584 212.205C25.8616 208.043 25.7164 203.688 25.5228 199.139C25.426 194.59 25.2808 190.137 25.0873 185.782C24.9905 181.329 24.8453 177.071 24.6517 173.005C24.4581 168.844 24.2162 165.02 23.9258 161.536C22.0868 161.923 20.2478 162.31 18.4088 162.697C16.6666 163.085 14.876 163.568 13.037 164.149C11.8755 163.568 10.714 162.359 9.55255 160.52C8.48786 158.584 7.66515 156.406 7.08441 153.986C6.50367 151.567 6.3101 149.195 6.50367 146.872C6.69725 144.549 7.47157 142.662 8.82662 141.21ZM39.4605 213.802C39.3637 211.576 39.3153 209.398 39.3153 207.269C39.4121 205.043 39.4605 203.059 39.4605 201.316V195.364L38.1539 213.802H38.8798H39.4605ZM83.0158 187.959C83.1126 185.636 82.1931 183.12 80.2573 180.41C78.3215 177.7 75.563 175.135 71.9818 172.715C68.4974 170.199 64.3354 167.972 59.496 166.037C54.6565 164.004 49.4298 162.552 43.816 161.681C43.7193 165.94 43.5741 170.489 43.3805 175.328C43.2837 180.168 43.1385 184.959 42.9449 189.702C42.8482 194.348 42.703 198.751 42.5094 202.913C42.3158 207.075 42.1706 210.657 42.0738 213.657C46.6229 213.27 51.2688 212.254 56.0115 210.608C60.851 208.866 65.2065 206.785 69.0781 204.365C73.0465 201.946 76.2889 199.332 78.8055 196.525C81.4188 193.622 82.8222 190.766 83.0158 187.959ZM110.035 211.915C114.971 210.366 120.198 208.866 125.715 207.414C131.329 205.962 136.942 204.752 142.556 203.785C148.17 202.817 153.59 202.236 158.817 202.042C164.043 201.752 168.738 201.994 172.9 202.768C172.9 203.059 172.754 203.397 172.464 203.785C172.174 204.172 171.835 204.559 171.448 204.946C171.061 205.333 170.625 205.817 170.141 206.398L169.415 208.14L163.898 210.753L167.963 211.189C167.189 211.479 166.415 211.818 165.64 212.205C164.963 212.496 164.237 212.883 163.463 213.367C162.785 213.754 162.156 214.189 161.575 214.673C160.317 215.641 159.398 216.561 158.817 217.432C158.236 218.303 157.462 218.932 156.494 219.319C156.107 219.319 154.074 219.755 150.396 220.626C146.718 221.497 141.975 222.804 136.168 224.546C130.457 226.288 123.973 228.466 116.713 231.079C109.551 233.693 102.34 236.79 95.0809 240.371C93.9194 240.952 92.6611 240.371 91.3061 238.629C89.951 236.887 88.8379 234.806 87.9668 232.386C87.0957 229.869 86.7086 227.401 86.8054 224.981C86.8054 222.465 87.7249 220.723 89.5639 219.755C90.2414 219.368 91.2577 218.932 92.6127 218.448C92.6127 214.286 92.6127 209.689 92.6127 204.656C92.7095 199.623 92.7579 194.493 92.7579 189.266C92.7579 184.039 92.7095 178.861 92.6127 173.731C92.6127 168.602 92.5159 163.859 92.3224 159.503C92.2256 155.051 92.032 151.179 91.7416 147.889C91.4512 144.598 91.1125 142.178 90.7253 140.629C91.79 140.339 92.9515 140 94.2098 139.613C95.2744 139.419 96.4843 139.226 97.8394 139.032C99.2912 138.742 100.743 138.694 102.195 138.887C106.066 138.403 110.809 138.064 116.423 137.871C122.037 137.677 127.699 137.58 133.41 137.58C139.12 137.484 144.444 137.484 149.38 137.58C154.316 137.677 157.946 137.726 160.269 137.726C160.172 138.016 160.123 138.355 160.123 138.742C160.123 139.129 160.123 139.565 160.123 140.049V141.5C159.543 141.694 159.01 141.984 158.526 142.372C158.042 142.662 157.559 143.001 157.075 143.388C156.591 143.775 156.107 144.211 155.623 144.695C155.429 144.888 155.139 145.13 154.752 145.42C154.461 145.614 154.122 145.856 153.735 146.146C153.348 146.534 152.864 146.872 152.283 147.163L155.187 147.308L150.396 149.776L150.251 151.518C149.186 152.002 148.17 152.438 147.202 152.825C146.428 153.212 145.653 153.551 144.879 153.841C144.202 154.035 143.766 154.18 143.572 154.277C143.379 154.277 142.363 154.422 140.524 154.712C138.781 155.003 136.555 155.39 133.845 155.874C131.232 156.261 128.28 156.745 124.989 157.326C121.698 157.809 118.456 158.293 115.261 158.777C115.261 159.358 115.213 159.939 115.116 160.52C115.116 161.1 115.116 161.681 115.116 162.262C115.02 164.198 114.923 166.037 114.826 167.779C114.729 169.521 114.584 171.263 114.39 173.005C117.584 172.618 120.875 172.28 124.263 171.989C127.747 171.699 131.135 171.457 134.426 171.263C137.717 170.973 140.766 170.828 143.572 170.828C146.476 170.731 148.896 170.683 150.832 170.683C150.832 171.166 150.638 171.796 150.251 172.57C150.057 172.957 149.864 173.344 149.67 173.731L149.089 177.216L144.589 179.684L146.476 179.829L141.685 182.878L141.83 184.33L136.604 185.636L135.587 187.379C134.619 187.863 133.651 188.298 132.684 188.685C131.909 189.073 131.087 189.46 130.215 189.847C129.441 190.137 128.812 190.379 128.328 190.573C128.134 190.573 127.505 190.718 126.441 191.008C125.473 191.202 124.215 191.541 122.666 192.025C121.117 192.412 119.423 192.847 117.584 193.331C115.842 193.815 114.052 194.251 112.213 194.638C111.825 198.51 111.438 201.897 111.051 204.801C110.664 207.705 110.325 210.076 110.035 211.915ZM239.081 142.226C239.275 143.291 239.323 144.307 239.226 145.275C239.226 146.146 239.129 147.017 238.936 147.889C238.065 150.115 236.371 154.131 233.854 159.939C231.435 165.746 228.725 172.715 225.724 180.845C222.724 188.879 219.82 197.784 217.013 207.559C214.303 217.238 212.222 227.159 210.77 237.322C201.865 238.774 195.477 239.016 191.606 238.048C187.831 237.08 185.702 234.951 185.218 231.66C184.153 232.337 183.233 232.773 182.459 232.967C181.782 233.063 181.298 232.773 181.007 232.095C180.717 230.934 180.185 228.901 179.41 225.998C178.636 222.997 177.716 219.464 176.652 215.399C175.587 211.237 174.377 206.688 173.022 201.752C171.667 196.816 170.215 191.783 168.667 186.653C167.118 181.523 165.521 176.49 163.876 171.554C162.23 166.617 160.585 162.068 158.939 157.906C157.294 153.744 155.648 150.163 154.003 147.163C152.358 144.162 150.761 142.081 149.212 140.92C154.245 137.822 159.036 136.225 163.585 136.129C165.521 136.129 167.457 136.467 169.393 137.145C171.425 137.726 173.361 138.887 175.2 140.629C177.136 142.275 178.878 144.549 180.427 147.453C181.975 150.357 183.282 154.083 184.347 158.632C185.218 162.407 186.137 166.279 187.105 170.247C188.17 174.215 189.186 178.087 190.154 181.862C191.122 185.636 191.993 189.314 192.767 192.896C193.638 196.477 194.316 199.816 194.8 202.913C197.607 195.461 200.414 188.395 203.22 181.717C206.124 174.941 209.076 168.456 212.077 162.262C215.174 156.067 218.32 150.115 221.514 144.404C224.805 138.597 228.192 132.886 231.677 127.272C232.064 127.079 232.257 127.321 232.257 127.998C232.354 128.579 232.645 129.111 233.128 129.595C233.322 129.789 233.661 129.741 234.145 129.45C234.629 129.16 234.967 129.16 235.161 129.45C235.258 129.644 235.306 130.031 235.306 130.612C235.403 131.096 235.5 131.58 235.597 132.063C235.693 132.741 235.742 133.419 235.742 134.096C236.032 134.193 236.371 134.386 236.758 134.677C237.436 135.161 237.92 135.887 238.21 136.855C238.21 137.048 238.162 137.484 238.065 138.161C238.065 138.742 237.968 139.419 237.774 140.194C237.581 141.065 237.436 142.033 237.339 143.097C237.629 142.71 237.92 142.42 238.21 142.226C238.791 141.839 239.081 141.839 239.081 142.226Z" fill="url(#paint0_linear_1_951)"/>
<path d="M77.2786 42.7693C77.2786 45.9816 76.8136 48.8558 75.8837 51.3918C74.9539 53.8433 73.7281 56.0412 72.2065 57.9855C70.6849 59.8452 68.8674 61.4936 66.754 62.9307C64.7252 64.3678 62.5696 65.5935 60.2872 66.6079C62.7387 71.0037 64.4294 75.6954 65.3592 80.6829C66.3736 85.5859 66.4159 89.9817 65.486 93.8702C65.6551 90.9115 65.5283 88.2064 65.1056 85.7549C64.683 83.3035 64.1758 81.1901 63.584 79.4149C62.8232 77.3015 61.9779 75.4418 61.048 73.8356C61.8933 76.8789 62.6119 79.7953 63.2036 82.5849C63.7108 84.9519 64.0912 87.3611 64.3448 89.8126C64.683 92.1795 64.6407 94.0393 64.218 95.3918C64.1335 95.3073 64.049 95.2228 63.9644 95.1382C63.9644 95.0537 63.9222 94.9692 63.8376 94.8846L63.584 94.631C63.3304 95.1382 63.0345 95.5609 62.6964 95.899C62.4428 96.2372 62.1892 96.533 61.9356 96.7867C61.682 97.1248 61.4707 97.2939 61.3016 97.2939C61.1325 97.3784 60.8789 97.4207 60.5408 97.4207C60.2026 97.5052 59.8222 97.5897 59.3996 97.6743C58.9769 97.7588 58.512 97.8856 58.0048 98.0547L56.8635 96.7867C55.5955 91.7991 53.6512 87.1498 51.0307 82.8385C48.4101 78.4427 45.705 74.4696 42.9154 70.9192C40.633 71.2573 38.5196 71.4687 36.5753 71.5532C34.6311 71.6377 32.9826 71.68 31.6301 71.68H30.8693C30.7002 73.6243 30.5734 75.3995 30.4889 77.0057C30.4043 78.6118 30.3198 80.0066 30.2353 81.1901C30.1507 82.5426 30.0662 83.7261 29.9817 84.7405C29.8126 85.0787 29.6013 85.4168 29.3477 85.7549C29.1786 86.0931 28.9673 86.4735 28.7137 86.8962C28.4601 87.3188 28.1642 87.7838 27.8261 88.291C27.657 88.6291 27.4034 89.0518 27.0652 89.559C26.8116 90.0662 26.558 90.6157 26.3044 91.2074C25.9663 91.8837 25.6282 92.6022 25.29 93.363C25.0364 93.4476 24.7406 93.5744 24.4024 93.7434C23.8107 94.0816 23.3035 94.5042 22.8808 95.0114C22.7963 95.1805 22.7117 95.3918 22.6272 95.6454C22.5427 95.8145 22.4159 96.0681 22.2468 96.4062C22.0777 96.7444 21.9509 97.1248 21.8664 97.5475L20.852 97.4207L19.3304 99.8299L18.8232 99.5763C18.485 99.4072 18.2737 99.3227 18.1892 99.3227C17.851 99.4917 17.5552 99.7876 17.3016 100.21C17.1325 100.717 16.9211 100.971 16.6675 100.971C16.583 100.464 16.4985 99.1959 16.4139 97.1671C16.3294 95.1382 16.2026 92.6022 16.0335 89.559C15.949 86.5157 15.8222 83.0921 15.6531 79.2881C15.5686 75.3995 15.4841 71.3419 15.3995 67.1152C13.4552 65.9317 11.68 64.3255 10.0739 62.2967C8.46773 60.2679 7.19972 57.7741 6.26984 54.8154C6.18531 54.5618 6.01624 53.8433 5.76264 52.6598C5.59357 51.4763 5.59357 50.4619 5.76264 49.6166C5.9317 50.4619 6.14304 51.3918 6.39664 52.4062C6.73478 53.3361 7.07292 54.266 7.41105 55.1958C7.74919 56.0412 8.08733 56.802 8.42546 57.4783C8.84813 58.1545 9.22854 58.6195 9.56667 58.8731C8.3832 56.4216 7.58012 54.1392 7.15745 52.0258C6.73478 49.8279 6.69251 48.0104 7.03065 46.5734C7.70692 48.6867 10.3697 50.6733 15.0191 52.533C14.8501 48.3063 14.6387 44.2064 14.3851 40.2333C14.2161 36.2602 14.047 32.5407 13.8779 29.0748C11.4264 29.4129 8.84813 29.9201 6.14304 30.5964C5.12863 30.2583 4.15649 29.4129 3.22661 28.0604C2.29673 26.6233 1.62046 25.0594 1.19779 23.3687C0.690585 21.678 0.521517 19.9873 0.690585 18.2967C0.859653 16.606 1.49366 15.2534 2.5926 14.239C3.18434 13.7318 4.66369 13.0978 7.03065 12.337C9.48214 11.4917 12.5254 10.7309 16.1603 10.0546C19.7953 9.37831 23.8107 8.8711 28.2065 8.53297C32.6868 8.19483 37.1671 8.2371 41.6474 8.65977C46.2122 8.99791 50.6503 9.84325 54.9615 11.1958C59.2728 12.4638 63.0768 14.4504 66.3736 17.1555C69.6705 19.776 72.3333 23.1997 74.3621 27.4264C76.3909 31.5685 77.3631 36.6829 77.2786 42.7693ZM67.3881 39.2189C67.4726 37.4437 66.754 35.753 65.2324 34.1468C63.7953 32.5407 61.5975 31.1881 58.6388 30.0892C55.6801 28.9057 52.0028 28.0181 47.6071 27.4264C43.2958 26.8346 38.3083 26.6656 32.6445 26.9192C32.729 27.5954 32.7713 28.314 32.7713 29.0748C32.7713 29.751 32.7713 30.5119 32.7713 31.3572C32.6868 35.4148 32.56 39.5147 32.3909 43.6569C32.2218 47.7146 32.0105 51.7299 31.7569 55.703C35.5609 55.703 39.534 55.2381 43.6762 54.3082C47.8184 53.2938 51.6224 52.0258 55.0883 50.5042C58.5542 48.9826 61.4284 47.2496 63.7108 45.3053C65.9932 43.361 67.219 41.3322 67.3881 39.2189ZM74.801 67.876C74.6319 67.4533 74.4206 67.0729 74.167 66.7348C73.9979 66.3121 73.702 66.1007 73.2794 66.1007C76.238 58.7463 79.1122 50.5042 81.9018 41.3745C84.6915 32.1603 86.8048 21.7626 88.2419 10.1814C93.483 9.42058 97.6252 9.12471 100.668 9.29378C103.712 9.46285 105.952 10.0546 107.389 11.069C109.84 10.9845 112.081 11.4917 114.109 12.5906C116.223 13.605 117.491 15.5493 117.913 18.4235C118.167 20.4523 118.632 23.3687 119.308 27.1728C119.984 30.8923 120.914 35.288 122.098 40.3601C123.281 45.3476 124.718 50.8846 126.409 56.9711C128.184 62.973 130.34 69.313 132.876 75.9912C132.876 75.9912 132.538 75.6531 131.862 74.9768L130.847 73.9624L129.96 75.3572L128.565 74.4696L127.423 73.8356L126.029 74.9768C125.944 74.7232 125.817 74.4696 125.648 74.216C125.395 73.8779 125.141 73.3707 124.887 72.6944C124.718 72.948 124.549 73.3707 124.38 73.9624C124.211 74.4696 124 75.0191 123.746 75.6108C123.408 76.2871 123.112 76.9634 122.859 77.6397L121.717 76.8789C118.421 75.949 115.039 75.3572 111.573 75.1036C108.192 74.7655 104.811 74.6387 101.429 74.7232C98.1324 74.8078 94.8778 75.0614 91.6655 75.484C88.5378 75.9067 85.6213 76.3716 82.9162 76.8789C79.9576 77.3861 77.8442 76.7098 76.5762 74.85C75.3082 72.9057 74.7164 70.5811 74.801 67.876ZM95.216 56.337C97.8365 56.5061 100.415 56.802 102.951 57.2247C105.571 57.6473 108.023 58.1968 110.305 58.8731C108.868 55.6608 107.516 52.4485 106.248 49.2362C105.064 46.0239 103.881 42.8961 102.697 39.8529C101.514 42.8116 100.288 45.6435 99.02 48.3486C97.8365 51.0537 96.5685 53.7165 95.216 56.337ZM132.115 90.7002C132.369 91.1229 132.58 91.5455 132.749 91.9682C132.918 92.3909 132.96 92.6867 132.876 92.8558C132.791 93.1094 132.665 93.5321 132.496 94.1238C132.411 94.631 132.284 95.1805 132.115 95.7722C131.862 96.4485 131.65 97.2093 131.481 98.0547L130.34 97.4207C126.959 96.9135 122.985 96.7021 118.421 96.7867C113.94 96.8712 109.375 97.1248 104.726 97.5475C100.161 98.0547 95.8077 98.6887 91.6655 99.4495C87.5234 100.21 84.142 101.013 81.5214 101.859C79.3235 102.62 77.5061 102.493 76.069 101.478C74.6319 100.548 73.5752 99.1536 72.8989 97.2939C72.3072 95.4341 72.0536 93.3208 72.1381 90.9538C72.3072 88.5868 72.8567 86.3889 73.7866 84.3601C75.9844 83.0921 78.8163 82.12 82.2822 81.4437C85.8327 80.6829 89.6367 80.218 93.6944 80.0489C97.752 79.8798 101.852 79.9221 105.994 80.1757C110.136 80.4293 113.94 80.8942 117.406 81.5705C120.957 82.1622 123.958 82.923 126.409 83.8529C128.861 84.7828 130.424 85.7972 131.101 86.8962C131.185 86.9807 131.185 87.023 131.101 87.023C131.016 87.023 130.932 86.9807 130.847 86.8962C130.678 86.8962 130.551 86.8539 130.467 86.7694L132.242 88.925L131.101 89.1786L132.115 90.7002ZM185.07 6.37735C185.492 6.80002 185.957 7.56083 186.464 8.65977C187.056 9.75871 187.521 11.0267 187.859 12.4638C188.282 13.9009 188.493 15.4225 188.493 17.0287C188.578 18.6348 188.324 20.1142 187.732 21.4667C187.141 22.8192 186.126 23.9182 184.689 24.7635C183.252 25.6089 181.308 26.0315 178.856 26.0315C178.687 26.0315 177.673 26.1161 175.813 26.2851C174.038 26.3697 171.798 26.4965 169.093 26.6655C166.387 26.8346 163.344 27.046 159.963 27.2996C156.666 27.4686 153.454 27.6377 150.326 27.8068L149.946 38.4581C152.566 38.2045 155.229 37.9931 157.934 37.8241C160.639 37.5705 163.217 37.4014 165.669 37.3169C168.205 37.1478 170.53 37.021 172.643 36.9365C174.841 36.8519 176.701 36.8097 178.222 36.8097C178.222 37.2323 178.053 37.7818 177.715 38.4581C177.546 38.7962 177.377 39.1343 177.208 39.4725L176.827 42.5157L172.897 44.6713L174.418 44.7981L170.361 47.461L170.487 48.729L165.923 49.8702L165.035 51.3918C164.274 51.8145 163.471 52.1949 162.626 52.533C161.949 52.8711 161.231 53.2093 160.47 53.5474C159.709 53.8856 159.118 54.1392 158.695 54.3082C158.441 54.3082 157.385 54.5618 155.525 55.069C153.665 55.4917 151.509 56.0412 149.058 56.7175C148.804 60.437 148.551 63.8606 148.297 66.9884C148.128 70.0316 147.959 72.7367 147.79 75.1036C147.536 77.8933 147.367 80.387 147.283 82.5849L146.395 81.5705L145.888 84.7405L144.366 85.1209L142.718 89.9394L139.041 92.2218L136.885 95.265L135.744 94.631L134.729 97.9279C134.476 98.1815 134.264 98.4351 134.095 98.6887C133.588 99.1959 133.292 99.4495 133.208 99.4495C133.123 98.7732 132.996 97.1671 132.827 94.631C132.743 92.095 132.616 88.925 132.447 85.1209C132.362 81.3169 132.236 77.0479 132.067 72.314C131.982 67.4956 131.855 62.5926 131.686 57.6051C131.602 52.533 131.433 47.5032 131.179 42.5157C131.01 37.4437 130.799 32.7097 130.545 28.314L129.023 27.9336L129.911 26.4119L127.502 25.6511L124.078 24.8903L125.219 23.6223L123.317 21.9739L125.346 20.1987L120.401 20.0719C120.232 19.8183 120.063 19.5224 119.894 19.1843C119.556 18.508 119.386 18.0431 119.386 17.7895C119.894 17.7049 121.077 17.5359 122.937 17.2823C124.712 16.9441 126.952 16.5637 129.657 16.141C129.488 14.6194 129.319 13.2669 129.15 12.0834C128.981 10.8999 128.812 9.84325 128.643 8.91337C128.558 8.65977 128.643 8.32163 128.897 7.89896C129.235 7.39176 129.742 7.05362 130.418 6.88456C131.433 6.54642 132.743 6.25055 134.349 5.99694C136.04 5.74334 137.73 5.78561 139.421 6.12374C141.112 6.37735 142.76 7.05362 144.366 8.15257C146.057 9.16698 147.41 10.8577 148.424 13.2246C152.313 12.6329 156.201 11.9989 160.09 11.3226C164.063 10.6463 167.698 10.0123 170.995 9.42058C174.376 8.74431 177.292 8.15257 179.744 7.64536C182.28 7.13816 184.055 6.71549 185.07 6.37735ZM177.084 67.876C176.915 67.4533 176.704 67.0729 176.45 66.7348C176.281 66.3121 175.985 66.1007 175.562 66.1007C178.521 58.7463 181.395 50.5042 184.185 41.3745C186.975 32.1603 189.088 21.7626 190.525 10.1814C195.766 9.42058 199.908 9.12471 202.951 9.29378C205.995 9.46285 208.235 10.0546 209.672 11.069C212.123 10.9845 214.364 11.4917 216.392 12.5906C218.506 13.605 219.774 15.5493 220.196 18.4235C220.45 20.4523 220.915 23.3687 221.591 27.1728C222.268 30.8923 223.197 35.288 224.381 40.3601C225.564 45.3476 227.001 50.8846 228.692 56.9711C230.467 62.973 232.623 69.313 235.159 75.9912C235.159 75.9912 234.821 75.6531 234.145 74.9768L233.13 73.9624L232.243 75.3572L230.848 74.4696L229.707 73.8356L228.312 74.9768C228.227 74.7232 228.1 74.4696 227.931 74.216C227.678 73.8779 227.424 73.3707 227.171 72.6944C227.001 72.948 226.832 73.3707 226.663 73.9624C226.494 74.4696 226.283 75.0191 226.029 75.6108C225.691 76.2871 225.395 76.9634 225.142 77.6397L224 76.8789C220.704 75.949 217.322 75.3572 213.856 75.1036C210.475 74.7655 207.094 74.6387 203.712 74.7232C200.415 74.8078 197.161 75.0614 193.949 75.484C190.821 75.9067 187.904 76.3716 185.199 76.8789C182.241 77.3861 180.127 76.7098 178.859 74.85C177.591 72.9057 176.999 70.5811 177.084 67.876ZM197.499 56.337C200.12 56.5061 202.698 56.802 205.234 57.2247C207.854 57.6473 210.306 58.1968 212.588 58.8731C211.151 55.6608 209.799 52.4485 208.531 49.2362C207.347 46.0239 206.164 42.8961 204.98 39.8529C203.797 42.8116 202.571 45.6435 201.303 48.3486C200.12 51.0537 198.852 53.7165 197.499 56.337ZM234.398 90.7002C234.652 91.1229 234.863 91.5455 235.032 91.9682C235.201 92.3909 235.244 92.6867 235.159 92.8558C235.074 93.1094 234.948 93.5321 234.779 94.1238C234.694 94.631 234.567 95.1805 234.398 95.7722C234.145 96.4485 233.933 97.2093 233.764 98.0547L232.623 97.4207C229.242 96.9135 225.268 96.7021 220.704 96.7867C216.223 96.8712 211.658 97.1248 207.009 97.5475C202.444 98.0547 198.091 98.6887 193.949 99.4495C189.806 100.21 186.425 101.013 183.804 101.859C181.607 102.62 179.789 102.493 178.352 101.478C176.915 100.548 175.858 99.1536 175.182 97.2939C174.59 95.4341 174.337 93.3208 174.421 90.9538C174.59 88.5868 175.14 86.3889 176.07 84.3601C178.267 83.0921 181.099 82.12 184.565 81.4437C188.116 80.6829 191.92 80.218 195.977 80.0489C200.035 79.8798 204.135 79.9221 208.277 80.1757C212.419 80.4293 216.223 80.8942 219.689 81.5705C223.24 82.1622 226.241 82.923 228.692 83.8529C231.144 84.7828 232.708 85.7972 233.384 86.8962C233.468 86.9807 233.468 87.023 233.384 87.023C233.299 87.023 233.215 86.9807 233.13 86.8962C232.961 86.8962 232.834 86.8539 232.75 86.7694L234.525 88.925L233.384 89.1786L234.398 90.7002Z" fill="url(#paint1_linear_1_951)"/>
<defs>
<linearGradient id="paint0_linear_1_951" x1="194.558" y1="139.562" x2="129.405" y2="284.9" gradientUnits="userSpaceOnUse">
<stop stop-color="#FCBD38"/>
<stop offset="1" stop-color="#F7931E"/>
</linearGradient>
<linearGradient id="paint1_linear_1_951" x1="194.434" y1="10.2599" x2="142.34" y2="142.811" gradientUnits="userSpaceOnUse">
<stop stop-color="#FCBD38"/>
<stop offset="1" stop-color="#F7931E"/>
</linearGradient>
</defs>
</svg>
